<?xml version="1.0" encoding="utf-8"?>
<!-- Generator: Adobe Illustrator 28.1.0, SVG Export Plug-In . SVG Version: 6.00 Build 0)  -->
<svg version="1.1" id="Layer_1" xmlns="http://www.w3.org/2000/svg" xmlns:xlink="http://www.w3.org/1999/xlink" x="0px" y="0px"
	 viewBox="0 0 200 200" style="enable-background:new 0 0 200 200;" xml:space="preserve">
<style type="text/css">
	.st0{fill:#EA5585;}
	.st1{fill:#1E1E1C;}
</style>
<g>
	<path class="st0" d="M183.6,87.6c-0.2-2.9-0.5-3.5-1.1-3.4c-0.5,0.1-0.4,1.2-0.4,1.2s1.3,14.1-10.9,25.4
		C159,122,149,123.5,145.3,121.8c-3.7-1.7-0.3-6.5-0.3-6.5c12.6,2.1,27.6-15.7,15.2-16.9c-10.6-1-18.8,12.4-18.8,12.4
		c-9.1,2.3-18.9,9.4-20,9.3c-0.9-0.1,0.2-1.3,0.6-1.8c0.4-0.5,3.3-4.4,3.3-4.4s2.7-3.7-0.3-6c-2-1.5-4.7,0.2-4.7,0.2
		s-12.4,7.8-16.4,10c-3.9,2.2-3.9,2.4-4.2,2.2c-0.3-0.2,0.3-0.8,0.3-0.8l4.3-5.3c0,0,5-6.2,5.6-10.5c0.5-5.4-6.1-2.7-6.1-2.7
		c-12.9,4.6-41.8,20.9-41.8,20.9s-1.8,1.2-2.4,0.7c-0.4-0.4,0.1-1,0.1-1c7.9-11.3,25.8-28.7,32.2-34.9c7.5-7.2,5-10.8,5-10.8
		s-3.4-8.6-32.1,0S21,105.5,21,105.5s-9.1,12.4-1.8,19.4c5.4,5.1,13.4,2.3,13.4,2.3c0.6-0.2,0.6-0.6,0.5-0.8
		c-0.2-0.4-1.5-0.2-1.5-0.2C23,127.8,20,123,20,123c-4.4-6.5,4.1-15.4,4.1-15.4c19.4-22,54.3-29.1,56.8-29.5c2.5-0.4,7.6-1,10.1-0.2
		c2.5,0.8-1.5,3.8-1.5,3.8C74.8,93.5,64.5,106,64.5,106s-9.3,11.2-9.7,16.4c-0.4,5.7,6.8,2.4,6.8,2.4s30.5-15,35.2-17.5
		c6.8-3.6,3.3,0.4,2.7,1.4c-0.5,0.8-3.8,5.6-3.8,5.6s-4.8,6.8-2.8,9.9c1.6,2.3,4,1.3,5.2,1c2.9-1,15.7-9.9,17.5-11.2
		c1.6-1.2,1.9-0.3,1.5,0.4c-0.3,0.5-0.8,1.5-1.3,2.8c-0.9,2-1.5,3.1-1.2,4.7c1.4,4.2,6.4,1.9,6.4,1.9c13.7-6.9,18.3-8.2,18.3-8.2
		c-5.7,14.5,10.7,10.8,10.7,10.8C182.9,116.8,183.9,91.4,183.6,87.6z M161.3,102.9c3.1,1.7-9,10.6-14.1,8.8
		C147,111.5,157.3,100.7,161.3,102.9z"/>
	<g>
		<polygon class="st1" points="103.5,94.5 103.5,77.9 106.6,77.9 106.6,86.2 118,77.9 122.2,77.9 112.5,84.7 122.6,94.5 118.6,94.5 
			110.3,86.1 106.6,88.8 106.6,94.5 		"/>
		<rect x="125.7" y="77.9" class="st1" width="3.1" height="16.6"/>
		<polygon class="st1" points="134,94.5 134,77.9 137,77.9 137,86.2 148.5,77.9 152.7,77.9 143,84.7 153.1,94.5 149.1,94.5 
			140.8,86.1 137,88.8 137,94.5 		"/>
		<path class="st1" d="M157.3,86.5c0,2,0.7,3.6,2.2,4.7c1.5,1.1,3.4,1.7,5.6,1.7c2.3,0,4.2-0.6,5.7-1.7c1.5-1.2,2.2-2.8,2.2-5
			c0-1.3-0.3-2.5-1-3.5c-0.6-1-1.6-1.8-2.8-2.3c-1.2-0.6-2.6-0.8-4.1-0.8c-2.2,0-4,0.5-5.6,1.6C158,82.2,157.3,84,157.3,86.5
			 M154.1,86.5c0-2.8,1-4.9,3.1-6.5c2.1-1.6,4.7-2.3,8-2.3c2.1,0,4.1,0.4,5.8,1.1c1.7,0.7,3,1.8,3.9,3.1c0.9,1.3,1.4,2.8,1.4,4.5
			c0,1.7-0.5,3.2-1.4,4.5c-0.9,1.3-2.3,2.3-4,3c-1.7,0.7-3.6,1-5.6,1c-2.2,0-4.1-0.4-5.8-1.1c-1.7-0.8-3-1.8-3.9-3.1
			C154.6,89.3,154.1,87.9,154.1,86.5"/>
	</g>
</g>
</svg>
