<svg width="575" height="185" viewBox="0 0 575 185" fill="none" xmlns="http://www.w3.org/2000/svg">
<g clip-path="url(#clip0_2516_11938)">
<path d="M111.053 50.8516L138.805 23.0995C108.107 -7.56887 58.3605 -7.54694 27.691 23.1512C23.0317 27.8144 18.9773 33.0471 15.6243 38.7232C46.4776 20.5317 85.7314 25.52 111.053 50.8516" fill="#FFC5C0"/>
<path d="M27.7405 134.175L0.0012207 161.914C30.7196 192.582 80.482 192.538 111.149 161.82C115.793 157.168 119.836 151.951 123.182 146.291C92.3252 164.479 53.0738 159.496 27.7405 134.175Z" fill="#FF4D4A"/>
<path d="M111.053 50.8575L27.7399 134.171C53.0732 159.491 92.3246 164.475 123.182 146.287C141.373 115.433 136.385 76.1796 111.053 50.8575Z" fill="#FFC5C0"/>
<path d="M27.7401 134.188L111.054 50.8742C85.7315 25.5426 46.4777 20.5543 15.6244 38.7458C-2.56401 69.6021 2.41905 108.854 27.7401 134.188Z" fill="#FF4D4A"/>
<path d="M283.603 73.9352C283.942 84.6434 291.874 93.2069 301.632 93.2069C311.616 93.2069 319.708 84.2674 319.708 73.2388C319.708 62.211 311.616 53.2622 301.632 53.2622C291.874 53.2622 283.942 61.8343 283.603 72.5331V73.9352ZM283.603 109.204V146.363L259.072 132.888V30.6786H283.603V37.2649C289.804 32.9801 297.162 30.6825 304.7 30.6786C326.512 30.6786 344.221 49.7333 344.221 73.2388C344.221 96.7452 326.54 115.8 304.7 115.8C297.161 115.787 289.805 113.487 283.603 109.204V109.204ZM454.721 30.6786H439.957V55.2942H454.721V88.7653C454.721 103.696 466.824 115.8 481.755 115.8C481.758 115.8 481.761 115.8 481.765 115.8H493.997V91.2775H490.714C484.371 91.2775 479.234 85.632 479.234 78.5937V55.2942H493.997V30.6786H479.243V13.7875L454.646 0.11519L454.721 30.6786ZM550.475 52.9324V115.8H574.997V66.4074L550.475 52.9324ZM562.708 46.8819C569.464 46.8819 574.941 41.4048 574.941 34.6494C574.941 27.8939 569.464 22.4168 562.708 22.4168C555.952 22.4168 550.475 27.8939 550.475 34.6494C550.475 41.4048 555.952 46.8819 562.708 46.8819V46.8819ZM509.994 115.8H534.535V44.1536L509.966 30.6786L509.994 115.8ZM522.227 0.11519C515.471 0.11519 509.994 5.59227 509.994 12.3478C509.994 19.104 515.471 24.5804 522.227 24.5804C528.984 24.5804 534.46 19.104 534.46 12.3478C534.46 5.59227 528.984 0.11519 522.227 0.11519ZM410.175 73.2482C410.175 62.211 402.082 53.2716 392.107 53.2716C382.134 53.2716 374.004 62.2204 374.004 73.2482C374.004 84.2768 382.095 93.2163 392.08 93.2163C402.064 93.2163 410.147 84.2768 410.147 73.2482H410.175ZM434.64 73.2482C434.64 96.7546 415.585 115.809 392.08 115.809C368.574 115.809 349.519 96.7546 349.519 73.2482C349.519 49.7427 368.574 30.688 392.08 30.688C415.58 30.6825 434.635 49.7294 434.64 73.2294C434.64 73.2357 434.64 73.242 434.64 73.2482V73.2482ZM248.476 88.6996C248.476 102.41 237.984 115.8 216.483 115.8C191.312 115.8 183.247 99.5112 182.607 90.6383L203.422 86.8736C203.751 92.3601 207.619 97.686 216.003 97.686C222.298 97.686 225.366 94.2981 225.366 90.7511C225.366 87.8434 223.427 85.4244 217.461 84.164L208.268 82.0655C191.16 78.3579 184.385 68.6751 184.385 57.3833C184.385 42.7044 197.296 30.7632 215.203 30.7632C238.436 30.782 246.5 45.2824 247.309 54.6918L226.975 58.4087C226.335 53.0836 222.947 48.5669 215.523 48.5669C210.818 48.5669 206.809 51.3047 206.809 55.501C206.809 58.8889 209.557 60.8277 213.104 61.4676L223.747 63.5662C240.374 66.9252 248.476 76.9182 248.476 88.6996" fill="#FF4D4A"/>
<path d="M218.945 178.003L219.712 184.234H246.412L245.535 177.114H233.076L232.977 176.225L244.44 168.214L243.676 162L216.924 161.984L217.848 169.104H230.31L230.42 169.995L218.945 178.003Z" fill="#1C1720"/>
<path d="M246.778 161.984L249.506 184.234H276.253L273.516 161.984H246.778Z" fill="#AA8FFF"/>
<path d="M294.405 173.546L286.036 173.554L285.389 168.215L293.791 168.222C295.77 168.245 296.782 169.36 296.945 170.884C297.051 171.865 296.6 173.546 294.405 173.546ZM304.287 169.995C303.67 164.994 299.741 161.963 294.402 161.984L276.603 161.985L279.4 184.234H287.349L286.802 179.784H295.269C301.933 179.784 304.982 175.632 304.287 169.995" fill="#1C1720"/>
<path d="M249.417 159.016C251.167 160.573 253.691 160.573 255.054 159.016C256.418 157.459 256.106 154.935 254.356 153.379C252.606 151.822 250.082 151.822 248.719 153.379C247.355 154.935 247.667 157.459 249.417 159.016" fill="#1C1720"/>
<path d="M324.121 173.546L315.753 173.554L315.105 168.215L323.508 168.222C325.486 168.245 326.498 169.36 326.662 170.884C326.767 171.865 326.317 173.546 324.121 173.546V173.546ZM334.003 169.995C333.386 164.994 329.458 161.963 324.118 161.984L306.32 161.985L309.116 184.234H317.066L316.519 179.784H324.986C331.649 179.784 334.698 175.632 334.003 169.995" fill="#1C1720"/>
<path d="M345.242 169.115L343.692 175.347H349.458L346.069 169.115H345.242ZM351.982 179.783H342.437L341.222 184.223L333.114 184.206L340.169 161.98H349.069L362.482 184.223L354.492 184.199L351.982 179.783" fill="#1C1720"/>
<path d="M366.049 184.217L364.952 175.352L353.076 161.974H361.679L368.017 169.128H368.825L373.847 162.016L382.451 162.015L372.981 175.352L374.088 184.234L366.049 184.217" fill="#1C1720"/>
<path d="M190.468 175.521H199.84L195.08 165.567L190.468 175.521ZM188.995 178.712L186.402 184.289H182.526L193.224 162.024H196.967L207.841 184.289H204.025L201.343 178.712H188.995" fill="#1C1720"/>
<path d="M414.636 180.409C412.661 183.259 409.302 184.887 404.277 184.887C401.757 184.887 399.606 184.475 397.779 183.635C394.125 182.007 392.091 178.625 392.091 173.423V173.335C392.091 170.859 392.621 168.76 393.727 167.006C395.864 163.47 399.754 161.525 404.66 161.525C406.723 161.525 408.491 161.872 410.171 162.497C413.472 163.816 415.741 166.38 416.463 170.359H412.632C411.909 166.94 409.272 165.032 404.69 165.032C399.208 165.032 395.804 167.728 395.804 173.364V173.395C395.804 178.713 398.884 181.381 404.483 181.381C409.7 181.381 412.116 179.001 412.721 175.457H416.581C416.257 177.343 415.623 178.964 414.636 180.409Z" fill="#1C1720"/>
<path d="M436.503 180.563C439.112 179.501 440.659 177.211 440.659 173.395C440.659 171.42 440.305 169.858 439.583 168.634C438.139 166.159 435.545 165.032 432.039 165.032C426.793 165.032 423.507 167.603 423.507 173.364V173.395C423.507 175.206 423.86 176.68 424.582 177.874C426.042 180.252 428.62 181.381 432.009 181.381C433.718 181.381 435.236 181.1 436.503 180.563V180.563ZM425.717 183.665C422.033 181.97 419.823 178.684 419.823 173.395V173.299C419.823 170.793 420.324 168.664 421.429 166.91C423.566 163.374 427.338 161.525 432.039 161.525C434.366 161.525 436.444 161.996 438.301 162.873C442.044 164.686 444.343 168.163 444.343 173.268V173.423C444.343 176.024 443.812 178.124 442.721 179.848C440.57 183.259 436.739 184.887 432.039 184.887C429.665 184.887 427.574 184.446 425.717 183.665" fill="#1C1720"/>
<path d="M452.154 184.289H448.676V162.024H452.094L461.127 172.361L470.38 162.024H473.593V184.289H470.115V167.322L461.215 177.12H460.832L452.154 167.351V184.289Z" fill="#1C1720"/>
<path d="M482.609 173.989H489.697C494.28 173.989 496.254 172.892 496.254 169.694C496.254 168.507 495.989 167.631 495.518 167.005C494.56 165.752 492.556 165.318 489.461 165.318H482.609V173.989ZM482.609 184.289H479.073V162.024H489.461C496.888 162.024 499.85 164.433 499.85 169.731C499.85 174.704 496.535 177.305 489.859 177.275H482.609V184.289" fill="#1C1720"/>
<path d="M506.835 175.521H516.207L511.448 165.567L506.835 175.521ZM505.361 178.712L502.769 184.289H498.893L509.591 162.024H513.333L524.208 184.289H520.392L517.71 178.712H505.361" fill="#1C1720"/>
<path d="M530.737 184.289H527.259V162.024H530.913L544.631 178.123L545.442 179.212V162.024H548.905V184.289H545.502L531.518 167.881L530.737 166.85V184.289Z" fill="#1C1720"/>
<path d="M561.047 175.051L551.587 162.024H555.993L562.992 171.89L570.551 162.024H574.943L564.79 175.116V184.289H561.047V175.051Z" fill="#1C1720"/>
</g>
<defs>
<clipPath id="clip0_2516_11938">
<rect width="575" height="184.773" fill="white" transform="translate(0 0.113281)"/>
</clipPath>
</defs>
</svg>
